PathFileType	4	(X/Y/Z)	S:\OneDrive - The University of Tokyo\ìåëÂéˆã∆\ÉoÉCÉÅÉJ\ë™íË\hirabayashi_2\Trimmed\Trimmed_BarL40kg1.trc
DataRate	CameraRate	NumFrames	NumMarkers	Units	OrigDataRate	OrigDataStartFrame	OrigNumFrames
200.00	200.00	       29	12	mm	200.00	91	       150
Frame#	Time	BarR0			BarR50			BarR100			BarR130			BarR180			BarR230			BarL0			BarL50			BarL100			BarL130			BarL180			BarL230			
		X1	Y1	Z1	X2	Y2	Z2	X3	Y3	Z3	X4	Y4	Z4	X5	Y5	Z5	X6	Y6	Z6	X7	Y7	Z7	X8	Y8	Z8	X9	Y9	Z9	X10	Y10	Z10	X11	Y11	Z11	X12	Y12	Z12	

91	0.450	-575.94263	2755.36572	1664.43359	-604.82544	2306.18555	1662.34827	-637.29382	1851.79810	1662.03162	-660.78522	1349.38477	1661.92480	-690.07794	902.68921	1662.69177	-713.80457	454.64081	1664.04968	-1113.31824	2807.29517	1664.61816	-1140.54041	2355.67749	1658.47083	-1171.20764	1905.54590	1653.15332	-1198.55371	1404.13831	1653.03699	-1226.99438	952.72186	1658.78870	-1244.51526	506.90433	1667.44873	
92	0.455	-575.93549	2755.35693	1664.42859	-604.79553	2306.17871	1662.34106	-637.31604	1851.79785	1662.00195	-660.76904	1349.39136	1661.92859	-690.08942	902.67010	1662.69751	-713.80225	454.64828	1664.05066	-1113.33618	2807.28271	1664.62573	-1140.55017	2355.68359	1658.49463	-1171.21716	1905.53577	1653.16125	-1198.55151	1404.09705	1653.04065	-1226.98352	952.73169	1658.79346	-1244.49744	506.92844	1667.45923	
93	0.460	-575.93140	2755.35913	1664.44409	-604.82794	2306.18506	1662.33862	-637.31458	1851.79785	1661.99243	-660.79089	1349.39185	1661.91870	-690.08783	902.70599	1662.68469	-713.80682	454.63498	1664.03906	-1113.29041	2807.27563	1664.63110	-1140.57092	2355.68555	1658.50696	-1171.20251	1905.53101	1653.15735	-1198.56689	1404.15259	1653.03638	-1226.99207	952.73199	1658.78491	-1244.50610	506.91681	1667.46790	
94	0.465	-575.94977	2755.38208	1664.44385	-604.79218	2306.20142	1662.34387	-637.33649	1851.84241	1661.98694	-660.77039	1349.40332	1661.92627	-690.08966	902.70624	1662.69751	-713.81067	454.64035	1664.04883	-1113.32971	2807.26587	1664.61267	-1140.55090	2355.67529	1658.48291	-1171.19775	1905.55640	1653.15100	-1198.55920	1404.12402	1653.03296	-1226.99609	952.74664	1658.78711	-1244.50769	506.91431	1667.46411	
95	0.470	-575.94922	2755.37231	1664.43079	-604.81958	2306.18628	1662.32312	-637.30957	1851.78369	1662.01611	-660.76099	1349.40771	1661.92749	-690.08246	902.68488	1662.69849	-713.80701	454.64380	1664.05103	-1113.31433	2807.29102	1664.62622	-1140.51306	2355.68652	1658.47461	-1171.21631	1905.55151	1653.15747	-1198.56848	1404.14197	1653.04041	-1226.99646	952.73663	1658.77441	-1244.49951	506.90323	1667.45203	
96	0.475	-575.94965	2755.37451	1664.42334	-604.82288	2306.16504	1662.35217	-637.31226	1851.81104	1662.00208	-660.76654	1349.38562	1661.92419	-690.07428	902.70013	1662.67554	-713.81073	454.63943	1664.04883	-1113.32642	2807.25537	1664.62268	-1140.57263	2355.67432	1658.47742	-1171.21765	1905.56226	1653.16333	-1198.55078	1404.10779	1653.03516	-1226.98328	952.73145	1658.77966	-1244.49829	506.90744	1667.45422	
97	0.480	-575.94977	2755.36328	1664.43835	-604.80408	2306.19092	1662.33752	-637.31677	1851.83484	1662.00952	-660.77917	1349.40491	1661.92224	-690.08191	902.70831	1662.69397	-713.82684	454.63516	1664.05115	-1113.31641	2807.27783	1664.61633	-1140.56885	2355.66870	1658.48730	-1171.22681	1905.55176	1653.15344	-1198.57153	1404.11279	1653.01636	-1226.98975	952.71747	1658.78149	-1244.49695	506.87421	1667.45703	
98	0.485	-575.95404	2755.37842	1664.44849	-604.83105	2306.17505	1662.32520	-637.34369	1851.80029	1661.99390	-660.80566	1349.39368	1661.92114	-690.08551	902.67786	1662.68262	-713.81927	454.65045	1664.04492	-1113.32739	2807.29248	1664.61597	-1140.57947	2355.68042	1658.48901	-1171.19214	1905.54907	1653.15222	-1198.48511	1404.51514	1652.48499	-1227.00037	952.72607	1658.77734	-1244.50537	506.92340	1667.45496	
99	0.490	-575.93976	2755.36426	1664.43469	-604.79492	2306.16455	1662.33264	-637.30347	1851.79272	1662.00891	-660.77991	1349.37622	1661.94995	-690.08545	902.70233	1662.69409	-713.79797	454.66235	1664.04736	-1113.31824	2807.26294	1664.61597	-1140.55347	2355.66553	1658.48303	-1171.21399	1905.53430	1653.16907	-1198.47278	1404.50659	1652.47009	-1226.99426	952.73260	1658.78577	-1244.50452	506.91046	1667.44702	
100	0.495	-575.95337	2755.39771	1664.43579	-604.83856	2306.18213	1662.33215	-637.31635	1851.83984	1662.00732	-660.79077	1349.38049	1661.94458	-690.09344	902.71570	1662.68579	-713.81750	454.65475	1664.05249	-1113.31921	2807.27612	1664.61609	-1140.57153	2355.68115	1658.48218	-1171.20862	1905.55347	1653.16455	-1198.47705	1404.50171	1652.46460	-1226.98840	952.72980	1658.78625	-1244.51477	506.91965	1667.45459	
101	0.500	-575.95306	2755.38818	1664.43823	-604.80029	2306.18652	1662.33984	-637.32825	1851.82813	1662.02588	-660.80078	1349.26575	1661.93530	-690.07849	902.69867	1662.68701	-713.81854	454.65683	1664.04065	-1113.31213	2807.28198	1664.63025	-1140.57141	2355.66699	1658.47571	-1171.21851	1905.56433	1653.17053	-1198.48413	1404.52820	1652.47571	-1226.99573	952.71594	1658.77136	-1244.49780	506.91464	1667.45142	
102	0.505	-575.94806	2755.38647	1664.43237	-604.83014	2306.16064	1662.33496	-637.30420	1851.83899	1661.99719	-660.78345	1349.37830	1661.94543	-690.09796	902.68097	1662.68274	-713.79620	454.62955	1664.04248	-1113.31567	2807.25732	1664.60706	-1140.55457	2355.69385	1658.47266	-1171.18604	1905.54980	1653.16565	-1198.55249	1404.12842	1653.02612	-1227.00061	952.71777	1658.76904	-1244.50732	506.90778	1667.43787	
103	0.510	-575.94843	2755.37720	1664.44946	-604.82971	2306.18359	1662.33655	-637.32080	1851.82117	1661.99023	-660.79138	1349.38477	1661.92310	-690.07458	902.71393	1662.68616	-713.79889	454.62592	1664.04626	-1113.29810	2807.30835	1664.60535	-1140.56201	2355.67822	1658.48486	-1171.21228	1905.55627	1653.14722	-1198.56433	1404.13281	1653.02454	-1226.99573	952.75067	1658.77698	-1244.51001	506.92831	1667.45276	
104	0.515	-575.95490	2755.38428	1664.43909	-604.85498	2306.17798	1662.34131	-637.33148	1851.82825	1662.02954	-660.78400	1349.40210	1661.93799	-690.08167	902.69562	1662.69592	-713.79291	454.62570	1664.05835	-1113.30151	2807.25830	1664.63281	-1140.58972	2355.68237	1658.50317	-1171.24573	1905.55359	1653.17334	-1198.56702	1404.12854	1653.02515	-1226.99109	952.73633	1658.79895	-1244.52124	506.91467	1667.46252	
105	0.520	-575.95154	2755.39063	1664.42651	-604.81329	2306.16821	1662.33594	-637.30133	1851.84656	1662.01917	-660.79974	1349.29321	1661.94043	-690.09637	902.70740	1662.71008	-713.79633	454.62747	1664.04895	-1113.30884	2807.25879	1664.61938	-1140.53442	2355.69141	1658.48132	-1171.20715	1905.54700	1653.17090	-1198.47900	1404.53613	1652.47754	-1227.01599	952.71979	1658.77844	-1244.49524	506.90097	1667.45593	
106	0.525	-575.96362	2755.38770	1664.42651	-604.81769	2306.19678	1662.34253	-637.31946	1851.81689	1661.99817	-660.76343	1349.40833	1661.95251	-690.06647	902.70190	1662.69348	-713.82111	454.65207	1664.05798	-1113.30847	2807.27930	1664.62537	-1140.58240	2355.66064	1658.49133	-1171.21411	1905.55823	1653.17041	-1198.56421	1404.14246	1653.04871	-1227.00110	952.73145	1658.77954	-1244.49194	506.91638	1667.45837	
107	0.530	-575.95752	2755.36890	1664.42798	-604.82452	2306.17822	1662.32825	-637.34912	1851.81909	1662.00098	-660.79004	1349.38513	1661.92944	-690.09357	902.69672	1662.69128	-713.80920	454.67352	1664.04529	-1113.33521	2807.28564	1664.61035	-1140.57495	2355.67578	1658.47900	-1171.22070	1905.55310	1653.14734	-1198.58118	1404.11768	1653.03381	-1227.00391	952.73248	1658.76245	-1244.50195	506.91882	1667.45068	
108	0.535	-575.96259	2755.37842	1664.42566	-604.82483	2306.18677	1662.33167	-637.32135	1851.81238	1662.00964	-660.78351	1349.26013	1661.93127	-690.08929	902.69891	1662.68848	-713.81079	454.64746	1664.04712	-1113.29590	2807.28638	1664.61682	-1140.57544	2355.66846	1658.49390	-1171.23950	1905.54590	1653.14099	-1198.48340	1404.50256	1652.47266	-1227.00427	952.72778	1658.79016	-1244.51221	506.91837	1667.43884	
109	0.540	-575.96246	2755.38110	1664.42456	-604.82471	2306.16431	1662.34412	-637.33234	1851.80945	1662.00513	-660.76941	1349.39111	1661.93701	-690.10132	902.72198	1662.69861	-713.81635	454.64951	1664.04639	-1113.32788	2807.26587	1664.63452	-1140.57385	2355.65186	1658.49719	-1171.21069	1905.54590	1653.15479	-1198.57495	1404.11438	1653.02588	-1227.00513	952.74170	1658.79102	-1244.50183	506.90909	1667.44226	
110	0.545	-575.95831	2755.38477	1664.42957	-604.80542	2306.17603	1662.33948	-637.31396	1851.81201	1662.00220	-660.78583	1349.40527	1661.93066	-690.08344	902.71613	1662.70825	-713.79547	454.62268	1664.04089	-1113.34119	2807.24756	1664.61011	-1140.56958	2355.68774	1658.49084	-1171.23083	1905.56055	1653.14734	-1198.56848	1404.14954	1653.02905	-1226.99963	952.73401	1658.78528	-1244.49292	506.91553	1667.45227	
111	0.550	-575.94159	2755.37939	1664.43689	-604.79779	2306.16724	1662.36694	-637.29633	1851.81531	1662.01880	-660.79211	1349.40942	1661.94739	-690.07996	902.71021	1662.70837	-713.81622	454.63757	1664.05945	-1113.31360	2807.26050	1664.62939	-1140.59851	2355.65454	1658.47278	-1171.21497	1905.56189	1653.15308	-1198.57971	1404.11633	1653.05310	-1226.99646	952.73956	1658.79138	-1244.50378	506.92444	1667.45825	
112	0.555	-575.95050	2755.39453	1664.43066	-604.80695	2306.17651	1662.32642	-637.31647	1851.80383	1662.01648	-660.79437	1349.26917	1661.95068	-690.10358	902.69519	1662.69287	-713.82031	454.64249	1664.05640	-1113.32666	2807.27515	1664.62439	-1140.57532	2355.67310	1658.47559	-1171.20227	1905.54785	1653.15686	-1198.48328	1404.52954	1652.47180	-1227.00781	952.71051	1658.78784	-1244.49402	506.90918	1667.45862	
113	0.560	-575.94550	2755.36450	1664.43127	-604.78113	2306.16309	1662.32764	-637.31470	1851.83447	1661.99243	-660.76904	1349.39380	1661.92688	-690.09088	902.67926	1662.70386	-713.80573	454.65958	1664.05469	-1113.32458	2807.24438	1664.61523	-1140.58557	2355.68506	1658.48071	-1171.20569	1905.53833	1653.14636	-1198.57520	1404.14038	1653.02808	-1226.99438	952.71088	1658.78418	-1244.51843	506.90695	1667.46118	
114	0.565	-575.94879	2755.36182	1664.43945	-604.81390	2306.15869	1662.34241	-637.31866	1851.82581	1662.01270	-660.81049	1349.26233	1661.92505	-690.06323	902.70502	1662.68652	-713.80774	454.63904	1664.05066	-1113.34924	2807.26074	1664.61389	-1140.57507	2355.65967	1658.47705	-1171.21094	1905.57092	1653.13977	-1198.47766	1404.49768	1652.45752	-1227.00525	952.73724	1658.78662	-1244.49927	506.90543	1667.44556	
115	0.570	-575.94293	2755.38818	1664.43579	-604.82202	2306.17114	1662.34424	-637.32800	1851.82312	1661.98657	-660.78137	1349.37891	1661.94006	-690.07983	902.70013	1662.70349	-713.82477	454.64142	1664.05994	-1113.34180	2807.29468	1664.59753	-1140.57739	2355.68799	1658.48572	-1171.24133	1905.54993	1653.17676	-1198.57617	1404.12378	1653.02344	-1227.01550	952.71899	1658.79688	-1244.49524	506.90387	1667.46765	
116	0.575	-575.95422	2755.37671	1664.44092	-604.78418	2306.17456	1662.31958	-637.32196	1851.81189	1662.01392	-660.78455	1349.38123	1661.94836	-690.08044	902.70929	1662.70215	-713.83325	454.64307	1664.06555	-1113.33521	2807.26294	1664.62122	-1140.58167	2355.65576	1658.47375	-1171.24048	1905.54944	1653.16907	-1198.57593	1404.12756	1653.04224	-1227.00146	952.71893	1658.78369	-1244.51660	506.91931	1667.45093	
117	0.580	-575.96057	2755.38745	1664.44397	-604.78973	2306.16113	1662.34387	-637.32214	1851.79749	1662.01880	-660.77887	1349.28699	1661.93726	-690.06775	902.69971	1662.70581	-713.83453	454.64594	1664.05981	-1113.27466	2807.29956	1665.12122	-1140.58081	2355.66431	1658.49109	-1171.23352	1905.55786	1653.16760	-1198.49133	1404.50378	1652.46716	-1226.98645	952.73480	1658.78491	-1244.50574	506.93048	1667.46252	
118	0.585	-575.94617	2755.38306	1664.42737	-604.79395	2306.16895	1662.33704	-637.30841	1851.81616	1662.02490	-660.77478	1349.26318	1661.92725	-690.07581	902.70520	1662.69751	-713.82178	454.65149	1664.05310	-1113.32666	2807.26733	1664.60400	-1140.55518	2355.69360	1658.47803	-1171.22644	1905.53394	1653.15222	-1198.49280	1404.52014	1652.47070	-1226.99365	952.76123	1658.78015	-1244.50989	506.93600	1667.46240	
119	0.590	-575.94574	2755.37256	1664.42114	-604.82544	2306.17725	1662.35229	-637.31024	1851.83936	1662.00769	-660.76288	1349.40381	1661.92847	-690.07721	902.68805	1662.68958	-713.81805	454.64304	1664.04822	-1113.32214	2807.30420	1664.60291	-1140.57654	2355.68823	1658.48206	-1171.23376	1905.57556	1653.15063	-1198.57251	1404.14575	1653.03760	-1227.00549	952.73340	1658.77551	-1244.50513	506.92847	1667.44202	
